<?xml version="1.0" encoding="UTF-8"?>
<svg id="Layer_1" data-name="Layer 1" xmlns="http://www.w3.org/2000/svg" viewBox="0 0 74.55 74.55">
  <defs>
    <style>
      .cls-1 {
        fill: none;
      }

      .cls-1, .cls-2 {
        stroke: #000;
        stroke-miterlimit: 10;
        stroke-width: 4px;
      }
    </style>
  </defs>
  <path class="cls-2" d="m37.27,2C17.79,2,2,17.79,2,37.27s15.79,35.28,35.27,35.28,35.28-15.79,35.28-35.28S56.76,2,37.27,2Zm-4.35,54.71c0,.56-.45,1-1,1h-7.27c-.55,0-1-.44-1-1V17.84c0-.56.45-1,1-1h7.27c.55,0,1,.44,1,1v38.87Zm17.98,0c0,.56-.45,1-1,1h-7.27c-.55,0-1-.44-1-1V17.84c0-.56.45-1,1-1h7.27c.55,0,1,.44,1,1v38.87Z"/>
  <g>
    <path class="cls-1" d="m50.9,17.84v38.87c0,.56-.45,1-1,1h-7.27c-.55,0-1-.44-1-1V17.84c0-.56.45-1,1-1h7.27c.55,0,1,.44,1,1Z"/>
    <path class="cls-1" d="m32.92,17.84v38.87c0,.56-.45,1-1,1h-7.27c-.55,0-1-.44-1-1V17.84c0-.56.45-1,1-1h7.27c.55,0,1,.44,1,1Z"/>
  </g>
</svg>