<?xml version="1.0" encoding="UTF-8"?>
<svg id="Layer_1" data-name="Layer 1" xmlns="http://www.w3.org/2000/svg" viewBox="0 0 74.55 74.55">
  <defs>
    <style>
      .cls-1, .cls-2 {
        fill: none;
      }

      .cls-1, .cls-2, .cls-3 {
        stroke-miterlimit: 10;
        stroke-width: 4px;
      }

      .cls-1, .cls-3 {
        stroke: #000;
      }

      .cls-2 {
        stroke: #231f20;
      }
    </style>
  </defs>
  <path class="cls-2" d="m56.84,37.98l-26.76,18.98c-.93.67-2.54.2-2.54-.73l-.26-37.9c-.01-.93,1.59-1.41,2.53-.75l27.03,18.92c.58.41.58,1.07,0,1.48Z"/>
  <g>
    <path class="cls-3" d="m37.27,2C17.79,2,2,17.79,2,37.27s15.79,35.28,35.27,35.28,35.28-15.79,35.28-35.28S56.76,2,37.27,2Zm19.57,35.98l-26.76,18.98c-.93.67-2.54.2-2.54-.73l-.26-37.9c-.01-.93,1.59-1.41,2.53-.75l27.03,18.92c.58.41.58,1.07,0,1.48Z"/>
    <path class="cls-1" d="m56.84,37.98l-26.76,18.98c-.93.67-2.54.2-2.54-.73l-.26-37.9c-.01-.93,1.59-1.41,2.53-.75l27.03,18.92c.58.41.58,1.07,0,1.48Z"/>
  </g>
</svg>